<?xml version="1.0" standalone="no"?>
<!DOCTYPE svg PUBLIC "-//W3C//DTD SVG 20010904//EN"
 "http://www.w3.org/TR/2001/REC-SVG-20010904/DTD/svg10.dtd">
<svg version="1.0" xmlns="http://www.w3.org/2000/svg"
 width="512.000000pt" height="512.000000pt" viewBox="0 0 512.000000 512.000000"
 preserveAspectRatio="xMidYMid meet">
<metadata>
Created by potrace 1.11, written by Peter Selinger 2001-2013
</metadata>
<g transform="translate(0.000000,512.000000) scale(0.100000,-0.100000)"
fill="#000000" stroke="none">
<path d="M2457 5104 c-2 -3 -21 -6 -43 -8 -21 -3 -39 -5 -39 -6 0 -2 -9 -4
-20 -6 -11 -1 -31 -5 -45 -9 -14 -3 -49 -8 -78 -10 -28 -2 -67 -7 -85 -11 -17
-4 -34 -8 -37 -9 -65 -13 -305 -129 -365 -177 -5 -4 -35 -28 -66 -52 -77 -61
-123 -107 -155 -155 -14 -23 -31 -41 -35 -41 -5 0 -8 -3 -7 -7 1 -5 -5 -22
-14 -38 -9 -17 -19 -47 -23 -68 -4 -20 -10 -37 -14 -37 -4 0 -7 -10 -6 -22 1
-13 -3 -29 -9 -37 -8 -11 -8 -13 2 -7 10 6 10 2 0 -21 -7 -15 -18 -37 -24 -48
-6 -11 -10 -28 -9 -37 2 -10 0 -18 -4 -18 -4 0 -7 -10 -6 -22 1 -13 -5 -32
-14 -42 -10 -12 -11 -16 -3 -12 10 6 13 1 10 -20 -1 -16 -7 -32 -13 -36 -7 -5
-7 -8 0 -8 13 0 13 -90 1 -109 -7 -10 -6 -12 3 -6 9 5 12 0 11 -16 -1 -13 -1
-26 0 -29 1 -3 4 -28 5 -57 1 -28 6 -56 10 -62 4 -7 1 -19 -7 -28 -9 -12 -9
-15 0 -9 12 7 15 -5 15 -56 0 -10 3 -18 6 -18 6 0 12 -32 14 -77 1 -13 4 -23
8 -23 4 0 9 -12 12 -27 11 -57 17 -81 32 -117 14 -34 14 -37 -5 -56 -11 -11
-17 -20 -13 -20 4 0 2 -5 -5 -12 -7 -7 -12 -20 -12 -31 0 -10 -4 -16 -8 -13
-8 5 -10 -5 -12 -69 -1 -22 -6 -32 -13 -28 -6 4 -7 1 -1 -8 5 -8 10 -30 11
-49 1 -19 6 -49 11 -67 6 -17 8 -34 4 -37 -3 -3 0 -6 6 -6 7 0 11 -3 10 -7 -3
-17 66 -143 86 -155 6 -4 11 -11 11 -16 0 -12 27 -37 48 -45 10 -4 15 -12 12
-17 -4 -6 -3 -9 2 -8 14 4 53 -13 53 -23 0 -6 5 -7 10 -4 6 3 10 1 10 -5 0 -6
5 -8 10 -5 6 4 11 -9 11 -32 3 -69 7 -138 9 -138 2 0 8 -42 11 -87 2 -21 0
-41 -4 -44 -4 -4 -2 -13 3 -19 6 -7 12 -45 15 -85 3 -40 7 -75 10 -78 2 -2 0
-14 -6 -25 -8 -14 -8 -17 0 -13 7 4 11 -8 11 -36 0 -24 1 -58 1 -77 1 -18 -4
-37 -11 -41 -6 -4 -12 -11 -12 -16 0 -5 -13 -28 -29 -51 -16 -23 -29 -46 -29
-52 0 -6 -4 -11 -10 -11 -5 0 -10 -7 -10 -15 0 -8 -5 -15 -12 -15 -6 0 -8 -3
-5 -7 4 -3 -4 -20 -17 -37 -13 -18 -22 -41 -20 -53 2 -13 0 -23 -6 -23 -6 0
-6 -10 1 -27 7 -19 7 -29 0 -31 -6 -2 -11 -11 -11 -19 0 -19 -57 -73 -77 -73
-7 0 -13 -4 -13 -10 0 -5 -6 -10 -14 -10 -8 0 -16 -3 -18 -8 -2 -4 -32 -22
-68 -40 -36 -18 -92 -48 -125 -66 -164 -90 -467 -245 -482 -247 -5 -1 -19 -9
-33 -18 -14 -10 -56 -33 -94 -52 -89 -44 -100 -53 -197 -158 -8 -10 -18 -25
-22 -34 -3 -9 -11 -17 -17 -17 -6 0 -9 -4 -6 -8 3 -5 -3 -18 -13 -29 -17 -18
-61 -91 -85 -140 -6 -13 -15 -23 -19 -23 -5 0 -5 -5 -2 -10 4 -6 3 -16 -2 -23
-11 -15 -9 -35 6 -71 6 -16 9 -36 7 -43 -3 -8 -1 -11 4 -8 6 3 10 1 10 -4 0
-22 2 -26 15 -34 8 -4 11 -15 8 -24 -4 -11 -3 -14 5 -9 7 4 12 1 12 -8 0 -9 5
-16 11 -16 5 0 8 -4 5 -8 -3 -5 4 -14 14 -22 10 -8 17 -17 14 -22 -3 -4 -1 -8
5 -8 6 0 18 -8 28 -18 36 -36 121 -102 132 -102 6 0 11 -4 11 -9 0 -5 14 -14
30 -21 16 -7 30 -16 30 -21 0 -5 9 -9 21 -9 11 0 18 -4 15 -8 -2 -4 3 -8 12
-9 9 -1 38 -10 63 -21 25 -11 72 -26 105 -33 32 -7 64 -19 70 -27 8 -11 13
-12 18 -3 5 7 13 8 25 1 10 -5 21 -6 25 -3 3 3 6 1 6 -4 0 -6 11 -10 25 -8 14
1 28 -1 31 -6 2 -4 11 -6 19 -2 8 3 15 1 15 -4 0 -5 8 -9 18 -10 38 -3 117
-11 117 -13 0 -1 16 -3 35 -5 19 -2 51 -6 70 -8 116 -16 139 -19 175 -22 22
-2 40 -4 40 -5 0 -1 22 -4 49 -6 28 -2 52 -8 55 -12 4 -5 45 -8 94 -8 52 1 87
-3 87 -9 0 -7 3 -7 8 0 8 11 162 14 162 3 0 -5 3 -7 8 -6 12 2 62 -14 62 -21
0 -4 8 -7 18 -8 34 -3 97 -11 97 -13 0 -1 16 -3 34 -6 19 -2 39 -10 43 -17 4
-6 8 -7 8 -2 0 13 113 13 122 0 5 -6 8 -6 8 2 0 7 13 10 33 9 39 -3 96 13 156
45 31 16 65 24 110 26 36 1 84 4 106 7 54 8 199 19 257 20 27 1 48 4 48 7 0 3
12 5 28 4 15 -1 38 2 51 7 16 6 29 4 39 -4 12 -10 14 -10 8 0 -5 8 1 12 21 13
28 0 49 2 138 14 28 3 67 8 87 10 20 2 45 6 55 9 10 3 35 6 56 8 20 1 37 5 37
9 0 3 24 10 53 14 70 11 75 12 127 25 25 7 56 14 69 16 13 3 32 9 41 14 10 5
20 7 22 4 3 -2 16 -1 29 5 58 22 142 54 149 56 3 0 28 11 55 23 28 12 54 22
58 22 4 0 15 6 23 15 9 8 19 13 24 10 5 -3 10 -1 12 3 1 5 30 23 63 42 33 18
62 37 65 41 3 4 12 9 19 11 8 2 22 10 32 18 37 31 48 40 54 40 6 0 43 31 118
100 32 30 63 56 68 58 5 2 9 8 9 12 0 5 13 28 29 52 29 44 83 151 88 178 12
52 14 73 14 140 1 80 -5 143 -17 175 -9 25 -86 118 -139 168 -57 54 -199 118
-312 142 -39 8 -44 36 -13 58 12 8 23 31 27 50 5 30 1 40 -23 62 -16 15 -29
31 -29 36 0 28 -52 86 -96 108 -57 29 -60 29 -160 35 -42 2 -85 9 -95 15 -11
5 -37 18 -59 28 -22 9 -54 25 -72 36 l-31 18 21 42 c12 23 25 44 30 45 4 2 4
8 1 13 -3 6 -1 15 5 22 15 19 62 174 87 284 21 98 28 292 13 357 -11 46 -59
150 -80 170 -5 6 -9 18 -9 27 0 10 -4 19 -8 21 -13 5 -112 205 -105 212 4 3 1
6 -5 6 -7 0 -12 4 -12 9 0 5 -5 22 -12 38 -6 15 -12 30 -13 33 0 3 -8 21 -17
40 -22 46 -53 143 -50 154 2 4 -2 14 -8 21 -6 7 -13 39 -15 71 -14 178 -22
257 -31 334 -3 25 -5 83 -4 130 0 47 1 126 2 175 0 50 -2 108 -6 130 -4 22 -9
49 -11 60 -2 11 -4 21 -5 23 -2 1 -3 5 -4 10 -12 49 -74 180 -98 206 -10 11
-18 23 -18 28 0 24 -131 151 -205 199 -33 21 -66 43 -72 49 -7 6 -13 8 -13 4
0 -3 -11 1 -25 10 -14 9 -25 14 -25 10 0 -4 -6 -2 -12 4 -22 17 -126 42 -191
47 -34 2 -69 6 -77 9 -38 14 -86 18 -232 21 -87 1 -159 1 -161 -1z"/>
</g>
</svg>
